<svg width="30" height="30" viewBox="0 0 30 30" fill="none" xmlns="http://www.w3.org/2000/svg">
<rect width="30" height="30" rx="6" fill="#FFF9ED"/>
<path d="M20.6796 11.641C20.6796 14.9637 18.0938 15.4808 18.0938 18.5777C18.0938 20.1767 16.483 20.3134 15.2585 20.3134C14.1945 20.3134 11.8525 19.9092 11.8525 18.5777C11.8525 15.4808 9.32031 14.9637 9.32031 11.641C9.35865 10.1436 9.97586 8.71943 11.0422 7.66755C12.1085 6.61566 13.5409 6.01796 15.0386 6C16.5285 6.02 17.9517 6.62073 19.0053 7.67431C20.0589 8.72789 20.6596 10.1511 20.6796 11.641Z" fill="#FFD983"/>
<path d="M17.1609 22.7098C17.1609 23.1378 16.0077 23.9997 15.0091 23.9997C14.0105 23.9997 12.8574 23.1378 12.8574 22.7098C12.8574 22.2819 14.0105 22.4542 15.0091 22.4542C16.0077 22.4542 17.1609 22.2819 17.1609 22.7098Z" fill="#CCD6DD"/>
<path d="M17.4394 11.2432C17.3424 11.1462 17.2109 11.0918 17.0738 11.0918C16.9367 11.0918 16.8052 11.1462 16.7083 11.2432L15.0082 12.9432L13.3083 11.2432C13.2113 11.1462 13.0798 11.0918 12.9427 11.0918C12.8056 11.0918 12.6741 11.1462 12.5771 11.2432C12.4802 11.3401 12.4258 11.4716 12.4258 11.6087C12.4258 11.7458 12.4802 11.8773 12.5771 11.9743L14.4911 13.8883V19.3509C14.4911 19.4881 14.5455 19.6196 14.6425 19.7166C14.7395 19.8136 14.871 19.868 15.0082 19.868C15.1453 19.868 15.2769 19.8136 15.3739 19.7166C15.4709 19.6196 15.5254 19.4881 15.5254 19.3509V13.8883L17.4394 11.9743C17.5363 11.8773 17.5907 11.7458 17.5907 11.6087C17.5907 11.4716 17.5363 11.3401 17.4394 11.2432Z" fill="#FFCC4D"/>
<path d="M18.1057 21.9365C18.1057 22.2108 17.9968 22.4738 17.8029 22.6678C17.6089 22.8618 17.3458 22.9707 17.0715 22.9707H12.9522C12.6779 22.9707 12.4148 22.8618 12.2208 22.6678C12.0269 22.4738 11.918 22.2108 11.918 21.9365V18.8574H18.1117L18.1057 21.9365Z" fill="#99AAB5"/>
<path d="M11.9098 20.382C11.7726 20.382 11.6411 20.3275 11.5441 20.2305C11.4471 20.1335 11.3926 20.002 11.3926 19.8648C11.3935 19.7439 11.437 19.627 11.5152 19.5347C11.5934 19.4424 11.7015 19.3804 11.8207 19.3596L18.0203 18.3253C18.0871 18.3134 18.1557 18.3149 18.2219 18.3298C18.2881 18.3446 18.3506 18.3725 18.4059 18.4118C18.4613 18.451 18.5082 18.5009 18.5441 18.5586C18.5799 18.6162 18.604 18.6804 18.6148 18.7473C18.6258 18.8145 18.6235 18.8832 18.6079 18.9494C18.5924 19.0156 18.5638 19.0782 18.5241 19.1334C18.4843 19.1886 18.4341 19.2354 18.3762 19.2712C18.3183 19.3069 18.254 19.3309 18.1868 19.3418L11.9929 20.376H11.9098M11.9098 22.4446C11.7721 22.443 11.6406 22.3872 11.5438 22.2893C11.447 22.1914 11.3926 22.0592 11.3926 21.9215C11.3935 21.8005 11.437 21.6837 11.5152 21.5914C11.5934 21.4991 11.7015 21.4371 11.8207 21.4162L18.0203 20.382C18.1551 20.3596 18.2931 20.3914 18.4045 20.4704C18.5158 20.5495 18.5915 20.6694 18.6148 20.804C18.6354 20.9394 18.6022 21.0775 18.5222 21.1886C18.4421 21.2998 18.3217 21.3751 18.1868 21.3984L11.9929 22.4208H11.9098" fill="#CCD6DD"/>
</svg>
