<svg width="30" height="30" viewBox="0 0 30 30" fill="none" xmlns="http://www.w3.org/2000/svg">
<rect width="30" height="30" rx="6" fill="#DCC1F7"/>
<path d="M8.00035 12.1692C7.99578 11.9493 8.03572 11.7308 8.11777 11.5267C8.19982 11.3226 8.3223 11.1373 8.47783 10.9817C8.63336 10.8262 8.81873 10.7037 9.0228 10.6217C9.22688 10.5396 9.44544 10.4997 9.66534 10.5043H21.3347C21.5546 10.4997 21.7731 10.5396 21.9772 10.6217C22.1813 10.7037 22.3666 10.8262 22.5222 10.9817C22.6777 11.1373 22.8002 11.3226 22.8822 11.5267C22.9643 11.7308 23.0042 11.9493 22.9996 12.1692V19.6737C23.0042 19.8936 22.9643 20.1122 22.8822 20.3162C22.8002 20.5203 22.6777 20.7057 22.5222 20.8612C22.3666 21.0167 22.1813 21.1392 21.9772 21.2213C21.7731 21.3033 21.5546 21.3433 21.3347 21.3387H9.66534C9.44544 21.3433 9.22688 21.3033 9.0228 21.2213C8.81873 21.1392 8.63336 21.0167 8.47783 20.8612C8.3223 20.7057 8.19982 20.5203 8.11777 20.3162C8.03572 20.1122 7.99578 19.8936 8.00035 19.6737V12.1692Z" fill="#292F33"/>
<path d="M12.5811 15.9216C12.5811 16.7465 12.8257 17.5529 13.2841 18.2387C13.7425 18.9245 14.394 19.4589 15.1562 19.7744C15.9184 20.0898 16.757 20.1721 17.566 20.0108C18.3749 19.8495 19.1179 19.4519 19.7008 18.8683C20.2838 18.2847 20.6805 17.5413 20.8409 16.7321C21.0012 15.923 20.9179 15.0845 20.6016 14.3226C20.2853 13.5608 19.7501 12.9099 19.0638 12.4523C18.3774 11.9947 17.5708 11.751 16.7459 11.752C16.1986 11.752 15.6566 11.8598 15.151 12.0694C14.6454 12.2791 14.186 12.5863 13.7992 12.9735C13.4124 13.3608 13.1057 13.8205 12.8967 14.3263C12.6877 14.8322 12.5804 15.3743 12.5811 15.9216Z" fill="#CCD6DD"/>
<path d="M20.0822 15.9216C20.0822 16.8083 19.7316 17.659 19.1069 18.2882C18.4822 18.9174 17.6341 19.2741 16.7474 19.2804C15.8658 19.2729 15.0224 18.919 14.3994 18.2951C13.7764 17.6711 13.4237 16.8273 13.4174 15.9456C13.4004 15.4974 13.474 15.0503 13.6338 14.6311C13.7936 14.212 14.0364 13.8294 14.3475 13.5063C14.6586 13.1831 15.0317 12.926 15.4445 12.7505C15.8573 12.5749 16.3012 12.4844 16.7498 12.4844C17.1984 12.4844 17.6424 12.5749 18.0551 12.7505C18.4679 12.926 18.841 13.1831 19.1522 13.5063C19.4633 13.8294 19.706 14.212 19.8658 14.6311C20.0256 15.0503 20.0992 15.4974 20.0822 15.9456" fill="#292F33"/>
<path d="M18.8581 15.9223C18.859 16.3353 18.7374 16.7393 18.5086 17.0832C18.2799 17.4271 17.9542 17.6953 17.5729 17.8541C17.1916 18.0128 16.7718 18.0548 16.3666 17.9748C15.9614 17.8948 15.589 17.6964 15.2966 17.4047C15.0042 17.113 14.805 16.7411 14.7241 16.3361C14.6431 15.931 14.6842 15.5111 14.842 15.1294C14.9999 14.7478 15.2674 14.4215 15.6107 14.1919C15.9541 13.9624 16.3578 13.8399 16.7708 13.8398C17.0447 13.8392 17.316 13.8926 17.5692 13.997C17.8224 14.1014 18.0525 14.2546 18.2464 14.4481C18.4403 14.6415 18.5941 14.8713 18.6991 15.1243C18.804 15.3772 18.8581 15.6484 18.8581 15.9223Z" fill="#3B88C3"/>
<path d="M22.1692 11.9635C22.1683 12.0876 22.1306 12.2086 22.061 12.3114C21.9913 12.4141 21.8928 12.4939 21.7779 12.5408C21.663 12.5876 21.5367 12.5994 21.4151 12.5746C21.2935 12.5498 21.182 12.4895 21.0945 12.4014C21.0071 12.3133 20.9477 12.2013 20.9238 12.0795C20.9 11.9577 20.9127 11.8316 20.9604 11.717C21.0081 11.6025 21.0887 11.5046 21.192 11.4357C21.2952 11.3668 21.4165 11.3301 21.5407 11.3301C21.6234 11.3295 21.7054 11.3453 21.782 11.3766C21.8585 11.408 21.9281 11.4543 21.9866 11.5128C22.045 11.5713 22.0913 11.6408 22.1227 11.7174C22.154 11.7939 22.1699 11.8759 22.1692 11.9587" fill="white"/>
<path d="M14.6648 11.7521L15.9171 9.25227L13.4172 10.0824L11.7521 8L10.9174 10.0824L8.4175 9.66497L10.0824 12.1696L8 13.8346H10.4999L9.66509 16.3345L12.1696 15.087L14.6648 17.1694L14.2473 13.8346L16.7521 13.4172L14.6648 11.7521Z" fill="#FFAC33"/>
<path d="M12.1693 13.8337L10.917 14.6638L11.3296 13.4163L10.082 12.9988L11.3296 12.1687L10.082 10.9163H11.7518L12.1693 9.66406L12.9994 10.9163L14.247 10.499L13.4169 11.7512L14.6645 12.9988L13.4169 13.4163L13.8344 15.0861L12.1693 13.8337Z" fill="white"/>
</svg>
