<svg width="30" height="30" viewBox="0 0 30 30" fill="none" xmlns="http://www.w3.org/2000/svg">
<rect width="30" height="30" rx="6" fill="#FFE6B7"/>
<path d="M22.7699 11.852C22.961 12.3727 23.0343 12.9292 22.9844 13.4815L18.8618 9.27202C20.3963 9.11721 22.0067 9.75815 22.7699 11.852Z" fill="#FF5A79"/>
<path d="M8.23175 11.8501C9.83137 7.52927 15.0213 9.46838 15.502 11.6247C15.7356 10.81 16.5313 10.0631 17.5253 9.63674L22.6338 14.8539C21.1917 18.2649 15.9691 20.9726 15.502 21.5158C14.9018 20.9618 6.51264 16.4996 8.23175 11.8501Z" fill="#FF5A79"/>
<path d="M18.8621 9.28027L22.9847 13.4898C22.9395 13.9579 22.8213 14.4161 22.6344 14.8477L17.5259 9.62791C17.9516 9.44645 18.4019 9.32928 18.8621 9.28027Z" fill="#DAE4EA"/>
<path d="M21.0424 13.4654C20.5578 13.9596 20.1905 14.5564 19.9677 15.2117C19.7449 15.8671 19.6722 16.5641 19.7551 17.2513L18.5466 16.0183L17.3218 17.2648C17.6095 15.3645 18.4896 13.6034 19.8366 12.2324L21.0424 13.4654Z" fill="#DAE4EA"/>
<path d="M19.7681 12.3C19.3173 12.759 19.3608 13.6932 19.8605 14.3776L20.2597 14.9208C20.7594 15.6025 21.3461 15.8007 21.5769 15.3608C21.8628 14.8592 22.2735 14.4401 22.7691 14.1441C23.201 13.9132 23.0054 13.3076 22.3373 12.7862L21.7941 12.3788C21.1315 11.8845 20.2163 11.841 19.7681 12.3Z" fill="white"/>
<path d="M19.8534 12.2029C19.7176 12.3658 19.9675 12.6048 20.3368 12.8004L20.5514 12.9117C20.9207 13.1073 21.0158 12.9905 20.7605 12.6401L20.6138 12.4473C20.3667 12.1241 19.9946 12.0291 19.8534 12.2029Z" fill="#DAE4EA"/>
<path d="M21.3879 15.2713C21.3879 15.3636 21.2874 15.3609 21.2494 15.3664C21.1354 15.3854 20.9208 15.3093 20.6628 15.0432C20.5833 14.9626 20.5098 14.8764 20.4428 14.7852L20.0436 14.242C19.7765 13.8812 19.6526 13.4341 19.696 12.9873C19.696 12.9873 21.3879 14.1605 21.3879 15.2713Z" fill="#C4CED6"/>
<path d="M18.642 11.0137C18.642 11.0137 17.1863 12.6432 14.9349 12.3308L16.1435 13.5638L14.9214 14.8158C16.7995 14.5164 18.5295 13.6148 19.8506 12.2467L18.642 11.0137Z" fill="#DAE4EA"/>
<path d="M19.7825 12.3166C19.3344 12.7756 18.4246 12.7321 17.7511 12.2215L17.2079 11.8114C16.5398 11.3009 16.3442 10.6952 16.776 10.4535C17.2719 10.1566 17.6826 9.73652 17.9683 9.23412C18.1937 8.79415 18.783 8.99241 19.2855 9.6768L19.6874 10.22C20.1898 10.9234 20.2333 11.8576 19.7825 12.3166Z" fill="white"/>
<path d="M19.8804 12.2217C19.7202 12.3575 19.4866 12.1049 19.2938 11.7247L19.1852 11.5102C18.9923 11.1299 19.1064 11.0322 19.4377 11.2956L19.6251 11.445C19.9564 11.7057 20.0407 12.0859 19.8804 12.2217Z" fill="#DAE4EA"/>
<path d="M16.8651 10.6709C16.7728 10.6709 16.7782 10.7741 16.77 10.8121C16.7784 10.9285 16.8107 11.0418 16.8649 11.1451C16.9191 11.2484 16.9941 11.3393 17.0851 11.4123C17.1653 11.492 17.2506 11.5664 17.3404 11.635L17.8835 12.0424C18.2319 12.3139 18.6717 12.4403 19.1111 12.3954C19.1111 12.3954 17.9514 10.6709 16.8651 10.6709Z" fill="#C4CED6"/>
<path d="M19.3103 11.8359C19.0577 12.1753 19.0251 12.6316 19.2397 12.8516C19.4542 13.0716 19.9023 13.039 20.2336 12.781L20.3477 12.694C20.4257 12.6365 20.4902 12.5625 20.5366 12.4774C20.5831 12.3923 20.6103 12.2981 20.6165 12.2014C20.6227 12.1046 20.6077 12.0077 20.5726 11.9173C20.5374 11.827 20.4829 11.7454 20.4129 11.6783L20.3857 11.6512C20.3215 11.5803 20.2421 11.525 20.1534 11.4892C20.0647 11.4535 19.9691 11.4383 19.8737 11.4448C19.7783 11.4514 19.6855 11.4795 19.6025 11.527C19.5195 11.5745 19.4484 11.6401 19.3945 11.7191L19.3103 11.8359Z" fill="white"/>
<path d="M19.6734 12.4112C19.8038 12.5093 19.9624 12.5623 20.1255 12.5623C20.2887 12.5623 20.4474 12.5093 20.5777 12.4112C20.5278 12.5192 20.4512 12.6127 20.3551 12.6828L20.2383 12.7724C19.9069 13.044 19.4588 13.063 19.2443 12.8431C19.0297 12.6231 19.0623 12.1668 19.3122 11.8273L19.4018 11.7078C19.4714 11.6105 19.5649 11.5328 19.6734 11.4824C19.5762 11.6177 19.5238 11.7802 19.5238 11.9468C19.5238 12.1135 19.5762 12.2759 19.6734 12.4112Z" fill="#DAE4EA"/>
</svg>
