<svg width="30" height="30" viewBox="0 0 30 30" fill="none" xmlns="http://www.w3.org/2000/svg">
<rect width="30" height="30" rx="6" fill="#9BD5B1"/>
<path d="M9.28421 13.6317C9.28421 14.516 8.75792 15.2107 8.1421 15.2107C7.52629 15.2107 7 14.4949 7 13.6317C7 12.7685 7.52629 12.0527 8.1421 12.0527C8.75792 12.0527 9.28421 12.7685 9.28421 13.6317ZM23.4585 13.6317C23.4585 14.516 22.9321 15.2107 22.311 15.2107C21.6899 15.2107 21.1689 14.4949 21.1689 13.6317C21.1689 12.7685 21.6952 12.0527 22.311 12.0527C22.9268 12.0527 23.4585 12.7685 23.4585 13.6317Z" fill="#F4900C"/>
<path d="M10.2014 15.6901C10.2 15.8107 10.151 15.9258 10.0653 16.0105C9.97955 16.0953 9.86393 16.1428 9.74339 16.1428H8.3696C8.24955 16.1428 8.13452 16.0951 8.04963 16.0102C7.96475 15.9253 7.91702 15.8102 7.91702 15.6901V11.5742C7.91633 11.5143 7.92748 11.4549 7.94992 11.3993C7.97235 11.3438 8.00561 11.2933 8.04771 11.2507C8.08981 11.2081 8.13996 11.1743 8.19522 11.1512C8.25049 11.1281 8.30971 11.1162 8.3696 11.1162H9.74339C9.86483 11.1162 9.98133 11.1645 10.0672 11.2504C10.1531 11.3363 10.2014 11.4527 10.2014 11.5742V15.6901ZM22.5439 15.6901C22.5425 15.8107 22.4936 15.9258 22.4079 16.0105C22.3222 16.0953 22.2064 16.1428 22.0859 16.1428H20.7175C20.6576 16.1435 20.5982 16.1322 20.5426 16.1098C20.4871 16.0874 20.4365 16.0542 20.394 16.0121C20.3514 15.97 20.3176 15.9198 20.2945 15.8646C20.2714 15.8093 20.2595 15.75 20.2595 15.6901V11.5742C20.2588 11.5138 20.2702 11.454 20.2929 11.3981C20.3157 11.3422 20.3495 11.2915 20.3922 11.2488C20.4348 11.2061 20.4855 11.1725 20.5413 11.1497C20.5972 11.127 20.6572 11.1155 20.7175 11.1162H22.0859C22.2073 11.1162 22.3238 11.1645 22.4097 11.2504C22.4956 11.3363 22.5439 11.4527 22.5439 11.5742V15.6901Z" fill="#FFAC33"/>
<path d="M19.8002 9.28954C19.8002 10.5527 17.7527 11.1159 15.2263 11.1159C12.6999 11.1159 10.6577 10.5527 10.6577 9.28954C10.6577 8.02634 12.7051 7 15.2263 7C17.7474 7 19.8002 8.02634 19.8002 9.28954Z" fill="#FFCC4D"/>
<path d="M18.427 8.86777C18.427 9.60464 16.9954 10.2046 15.2269 10.2046C13.4584 10.2046 12.0269 9.60464 12.0269 8.86777C12.0269 8.13091 13.4584 7.53613 15.2269 7.53613C16.9954 7.53613 18.427 8.13091 18.427 8.86777Z" fill="#F4900C"/>
<path d="M20.7168 9.51522C20.7168 10.1468 20.1904 10.2047 19.5693 10.2047H10.8848C10.2532 10.2047 9.74268 10.1468 9.74268 9.51522C9.74268 9.2123 9.86297 8.92179 10.0772 8.7076C10.2914 8.4934 10.5819 8.37305 10.8848 8.37305H19.5693C19.8727 8.37304 20.1638 8.49323 20.3788 8.70727C20.5939 8.92132 20.7154 9.21182 20.7168 9.51522Z" fill="#226699"/>
<path d="M21.6281 20.7153C21.6288 20.8353 21.6057 20.9543 21.5603 21.0654C21.5148 21.1764 21.4479 21.2775 21.3633 21.3626C21.2787 21.4477 21.178 21.5152 21.0672 21.5613C20.9564 21.6074 20.8376 21.6312 20.7176 21.6312H9.74345C9.50056 21.6312 9.26757 21.5347 9.09582 21.3629C8.92407 21.1912 8.82764 20.9582 8.82764 20.7153V10.657C8.82764 10.4141 8.92407 10.1812 9.09582 10.0095C9.26757 9.8377 9.50056 9.74121 9.74345 9.74121H20.7176C20.8376 9.74121 20.9564 9.76496 21.0672 9.81105C21.178 9.85714 21.2787 9.92466 21.3633 10.0098C21.4479 10.0949 21.5148 10.1959 21.5603 10.307C21.6057 10.4181 21.6288 10.537 21.6281 10.657V20.7153Z" fill="#55ACEE"/>
<path d="M22.0854 20.71H8.37431C7.86852 20.71 7.4585 21.12 7.4585 21.6258V22.0838C7.4585 22.5895 7.86852 22.9996 8.37431 22.9996H22.0854C22.5911 22.9996 23.0012 22.5895 23.0012 22.0838V21.6258C23.0012 21.12 22.5911 20.71 22.0854 20.71Z" fill="#3B88C3"/>
<path d="M15.5543 22.2529C15.4685 22.3387 15.352 22.3869 15.2306 22.3869C15.1092 22.3869 14.9928 22.3387 14.9069 22.2529L12.3173 19.6686C12.234 19.5814 12.1875 19.4655 12.1875 19.3449C12.1875 19.2243 12.234 19.1084 12.3173 19.0212L14.9069 16.9159C14.9487 16.8721 14.9989 16.8372 15.0546 16.8134C15.1102 16.7896 15.1701 16.7773 15.2306 16.7773C15.2911 16.7773 15.351 16.7896 15.4067 16.8134C15.4623 16.8372 15.5125 16.8721 15.5543 16.9159L18.1386 19.0212C18.2244 19.1071 18.2726 19.2235 18.2726 19.3449C18.2726 19.4663 18.2244 19.5827 18.1386 19.6686L15.5543 22.2529Z" fill="#55ACEE"/>
<path d="M20.2593 13.6312C20.258 14.1766 20.0407 14.6992 19.655 15.0849C19.2694 15.4705 18.7468 15.6878 18.2014 15.6892C17.656 15.6878 17.1334 15.4705 16.7477 15.0849C16.3621 14.6992 16.1448 14.1766 16.1434 13.6312C16.1434 13.361 16.1966 13.0934 16.3 12.8437C16.4034 12.594 16.5551 12.3671 16.7462 12.176C16.9373 11.9849 17.1642 11.8334 17.4139 11.7299C17.6635 11.6265 17.9312 11.5732 18.2014 11.5732C18.7472 11.5732 19.2706 11.7901 19.6566 12.176C20.0425 12.562 20.2593 13.0854 20.2593 13.6312ZM14.317 13.6312C14.3156 14.1766 14.0985 14.6992 13.7128 15.0849C13.3272 15.4705 12.8045 15.6878 12.2591 15.6892C11.7137 15.6878 11.191 15.4705 10.8054 15.0849C10.4197 14.6992 10.2026 14.1766 10.2012 13.6312C10.2012 13.0854 10.4179 12.562 10.8038 12.176C11.1898 11.7901 11.7133 11.5732 12.2591 11.5732C12.5293 11.5732 12.797 11.6265 13.0467 11.7299C13.2964 11.8334 13.5231 11.9849 13.7142 12.176C13.9053 12.3671 14.057 12.594 14.1604 12.8437C14.2638 13.0934 14.317 13.361 14.317 13.6312Z" fill="white"/>
<path d="M12.9433 14.7735C12.9433 14.895 12.895 15.0114 12.8091 15.0973C12.7232 15.1832 12.6067 15.2314 12.4853 15.2314H12.0274C11.9676 15.2314 11.9082 15.2196 11.8529 15.1965C11.7977 15.1734 11.7475 15.1396 11.7054 15.097C11.6633 15.0544 11.6301 15.0039 11.6076 14.9484C11.5852 14.8928 11.574 14.8334 11.5747 14.7735V12.484C11.574 12.4243 11.5853 12.3652 11.6078 12.3099C11.6303 12.2547 11.6636 12.2045 11.7058 12.1623C11.748 12.1201 11.7981 12.0868 11.8533 12.0643C11.9086 12.0418 11.9678 12.0306 12.0274 12.0313H12.4853C12.5452 12.0306 12.6046 12.0418 12.6602 12.0642C12.7157 12.0867 12.7663 12.1199 12.8088 12.162C12.8514 12.2041 12.8852 12.2542 12.9083 12.3095C12.9314 12.3647 12.9433 12.4241 12.9433 12.484V14.7735ZM18.8856 14.7735C18.8856 14.895 18.8373 15.0114 18.7514 15.0973C18.6656 15.1832 18.5491 15.2314 18.4276 15.2314H17.9696C17.8482 15.2314 17.7318 15.1832 17.646 15.0973C17.5601 15.0114 17.5118 14.895 17.5118 14.7735V12.484C17.5118 12.4241 17.5237 12.3647 17.5468 12.3095C17.5698 12.2542 17.6036 12.2041 17.6462 12.162C17.6888 12.1199 17.7394 12.0867 17.7949 12.0642C17.8504 12.0418 17.9098 12.0306 17.9696 12.0313H18.4276C18.4875 12.0306 18.547 12.0418 18.6025 12.0642C18.658 12.0867 18.7085 12.1199 18.7511 12.162C18.7936 12.2041 18.8276 12.2542 18.8506 12.3095C18.8737 12.3647 18.8856 12.4241 18.8856 12.484V14.7735Z" fill="#DD2E44"/>
<path d="M20.2593 18.6422C20.2593 18.9451 20.1391 19.2356 19.9249 19.4498C19.7107 19.664 19.4202 19.7843 19.1172 19.7843H11.3433C11.0404 19.7843 10.7499 19.664 10.5357 19.4498C10.3215 19.2356 10.2012 18.9451 10.2012 18.6422C10.2012 18.3393 10.3215 18.0487 10.5357 17.8345C10.7499 17.6204 11.0404 17.5 11.3433 17.5H19.1172C19.4202 17.5 19.7107 17.6204 19.9249 17.8345C20.1391 18.0487 20.2593 18.3393 20.2593 18.6422Z" fill="#F5F8FA"/>
<path d="M17.9691 19.7999H17.0586V17.5156H17.9691V19.7999ZM13.4006 19.7999H12.5059V17.5156H13.4217L13.4006 19.7999ZM15.6849 19.7999H14.7691V17.5156H15.6849V19.7999Z" fill="#CCD6DD"/>
<mask id="mask0_427_30105" style="mask-type:luminance" maskUnits="userSpaceOnUse" x="10" y="17" width="11" height="3">
<path d="M11.3433 17.5146C11.0404 17.5146 10.7499 17.635 10.5357 17.8492C10.3215 18.0634 10.2012 18.3539 10.2012 18.6568C10.2012 18.9597 10.3215 19.2502 10.5357 19.4644C10.7499 19.6786 11.0404 19.7989 11.3433 19.7989H19.1172C19.4202 19.7989 19.7107 19.6786 19.9249 19.4644C20.1391 19.2502 20.2593 18.9597 20.2593 18.6568C20.2593 18.3539 20.1391 18.0634 19.9249 17.8492C19.7107 17.635 19.4202 17.5146 19.1172 17.5146H11.3433Z" fill="white"/>
</mask>
<g mask="url(#mask0_427_30105)">
<path d="M20.2594 19.7989H19.3488V17.5146H20.2646L20.2594 19.7989ZM11.117 19.7989H10.2012V17.5146H11.117V19.7989Z" fill="#CCD6DD"/>
</g>
</svg>
