<svg width="30" height="30" viewBox="0 0 30 30" fill="none" xmlns="http://www.w3.org/2000/svg">
<rect width="30" height="30" rx="6" fill="#FBC6F3"/>
<path d="M20.7888 23.1666H10.1204C9.96458 23.1706 9.80959 23.1437 9.66484 23.0876C9.52009 23.0315 9.38861 22.9473 9.27842 22.8401C9.16824 22.7329 9.08165 22.605 9.02395 22.4642C8.96624 22.3234 8.93863 22.1727 8.94279 22.0212V13.543H22.0003V22.0212C21.9863 22.3292 21.8544 22.6211 21.6305 22.8394C21.5204 22.9467 21.389 23.031 21.2443 23.0872C21.0996 23.1435 20.9446 23.1705 20.7888 23.1666Z" fill="#00B69A"/>
<path d="M21.4273 9.77815L8.94186 13.477L7.99951 10.5314L20.5188 6.83203L21.4273 9.77815ZM22.0009 13.477H8.94186V16.5205H21.9993L22.0009 13.477Z" fill="#B8C4C5"/>
<path d="M10.1533 13.1169L8.3025 11.4799L7.99951 10.5309L10.1872 9.90848L12.9131 12.2981L10.1533 13.1169ZM13.0811 13.4765H10.2206L8.94186 15.539V16.521H11.1963L13.0811 13.4765ZM12.0714 9.31702L14.8312 8.53129L17.5572 10.921L14.7979 11.7392L12.0714 9.31702ZM15.067 13.4765H17.9274L16.0427 16.52H13.1822L15.067 13.4765ZM19.4758 7.15918L21.0575 8.53383L21.4273 9.77761L19.4419 10.367L16.717 7.9444L19.4758 7.15918ZM19.9133 13.4765H21.9993V14.7532L20.9224 16.521H18.0286L19.9133 13.4765Z" fill="#445056"/>
</svg>
