<svg width="30" height="30" viewBox="0 0 30 30" fill="none" xmlns="http://www.w3.org/2000/svg">
<rect width="30" height="30" rx="6" fill="#6956F1" fill-opacity="0.65"/>
<g clip-path="url(#clip0_427_30120)">
<path d="M14.4514 12.5921C14.82 12.5921 15.1829 12.6492 15.5399 12.7611C15.8979 12.8752 16.2165 13.0378 16.4963 13.2518C16.7773 13.4662 17.004 13.7324 17.1772 14.0478C17.3504 14.3646 17.437 14.7233 17.437 15.1236C17.437 15.339 17.4127 15.5798 17.363 15.8456C17.3134 16.1128 17.2321 16.3641 17.1191 16.6003C17.0061 16.8369 16.8593 17.0365 16.6776 17.1977C16.496 17.3614 16.271 17.4417 16.0021 17.4417C15.9525 17.4417 15.888 17.4892 15.8078 17.5821C15.7275 17.6751 15.643 17.7775 15.5522 17.8873C15.4614 17.9972 15.3727 18.1007 15.284 18.1968C15.1963 18.2929 15.1213 18.3436 15.0611 18.3489L8.89184 22.3743C8.79891 22.4345 8.72181 22.5021 8.66162 22.576C8.60036 22.6499 8.53911 22.7196 8.47574 22.7819C8.41238 22.8464 8.33634 22.8981 8.24869 22.9393C8.16103 22.9805 8.04275 23.0005 7.89384 23.0005C7.76711 23.0005 7.65094 22.9784 7.54322 22.9308C7.4355 22.8844 7.34151 22.8221 7.25914 22.745C7.17571 22.6689 7.11129 22.576 7.06482 22.4683C7.01729 22.3616 6.99512 22.2454 6.99512 22.1177C6.99512 21.9645 7.01729 21.842 7.06482 21.7512C7.11129 21.6604 7.16831 21.5822 7.23379 21.5157C7.30033 21.4502 7.37003 21.3879 7.44395 21.3298C7.51893 21.2728 7.58336 21.1999 7.63827 21.1112L11.2011 15.4622C11.2064 15.4126 11.255 15.3608 11.3458 15.3049C11.4366 15.251 11.5328 15.1961 11.6341 15.1401C11.7355 15.0852 11.8295 15.0345 11.9151 14.988C11.9995 14.9416 12.0428 14.8962 12.0428 14.8518C12.0428 14.6036 12.122 14.3474 12.2815 14.0802C12.441 13.814 12.6427 13.5715 12.8842 13.3508C13.126 13.1311 13.3865 12.9495 13.6674 12.8062C13.9473 12.6636 14.2089 12.5918 14.4507 12.5918" fill="#757575"/>
<path d="M10.5588 12.3367L16.4884 9.36701C16.6922 9.26351 16.8844 9.14523 17.0657 9.01322C17.2473 8.88121 17.4311 8.7492 17.6177 8.61719L21.6924 12.2128L20.9999 13.0615C20.9387 13.1397 20.8774 13.2136 20.8141 13.2844C20.7507 13.3572 20.6916 13.4333 20.6367 13.5156C20.4381 13.8293 20.2649 14.1553 20.1174 14.4932C19.9685 14.8312 19.8122 15.1656 19.6467 15.4951L17.6673 19.4456L8.88421 22.3741L14.2449 17.0134C14.4044 17.0577 14.5585 17.0789 14.7071 17.0789C14.9542 17.0789 15.1852 17.0324 15.3995 16.9384C15.6139 16.8455 15.8019 16.7177 15.9642 16.5551C16.1268 16.3935 16.2546 16.2044 16.3475 15.9904C16.4415 15.776 16.488 15.5447 16.488 15.298C16.488 15.0512 16.4415 14.8199 16.3475 14.6045C16.2546 14.3901 16.1268 14.2032 15.9642 14.0398C15.8016 13.8782 15.6136 13.7505 15.3995 13.6565C15.1852 13.5635 14.9539 13.516 14.7071 13.516C14.4603 13.516 14.229 13.5635 14.0136 13.6565C13.7992 13.7505 13.6112 13.8782 13.449 14.0398C13.2863 14.2035 13.1585 14.3904 13.0656 14.6045C12.9727 14.8199 12.9251 15.0501 12.9251 15.298C12.9251 15.4458 12.9473 15.6011 12.9917 15.7591L7.63135 21.1198L10.5588 12.3367Z" fill="#CCCCCC"/>
<path d="M23.0039 12.3364L21.2303 14.1099L15.895 8.77351L17.6675 7L23.0039 12.3364Z" fill="#FFC83D"/>
</g>
<defs>
<clipPath id="clip0_427_30120">
<rect width="16.0077" height="16" fill="white" transform="translate(6.99609 7)"/>
</clipPath>
</defs>
</svg>
