<svg width="30" height="30" viewBox="0 0 30 30" fill="none" xmlns="http://www.w3.org/2000/svg">
<rect width="30" height="30" rx="6" fill="#D2CCFB"/>
<path d="M14.5341 22.5677C14.4991 22.6014 14.4577 22.6277 14.4122 22.6447C14.3668 22.6618 14.3183 22.6694 14.2698 22.6671C14.1731 22.6642 14.0801 22.6293 14.0055 22.5677C13.8509 22.3915 13.8509 22.2153 14.0055 22.0392L14.5013 21.5434C14.6499 21.3808 14.7324 21.1686 14.7328 20.9483C14.7275 20.7308 14.6387 20.5237 14.4848 20.3699C14.3309 20.2161 14.1237 20.1274 13.9062 20.1222C13.686 20.1222 13.4738 20.2048 13.3116 20.3537L12.9147 20.7501C12.6263 21.0286 12.2401 21.1829 11.8391 21.1798C11.442 21.1746 11.0625 21.0145 10.7816 20.7336C10.5007 20.4527 10.3406 20.0733 10.3354 19.6761C10.336 19.2664 10.4892 18.8716 10.7652 18.5688L12.5167 16.8173C12.6929 16.6851 12.8636 16.7022 13.0289 16.8685C13.1941 17.0347 13.1997 17.2055 13.0458 17.3806L11.2937 19.1322C11.1647 19.2781 11.0941 19.4665 11.0955 19.6612C11.0949 19.8589 11.1722 20.0487 11.3106 20.1898C11.3768 20.2642 11.4583 20.3234 11.5495 20.3633C11.6408 20.4033 11.7396 20.4231 11.8391 20.4213C11.9411 20.422 12.042 20.4018 12.1358 20.362C12.2296 20.3222 12.3143 20.2636 12.3846 20.1898L12.781 19.8262C12.9269 19.6767 13.1018 19.5586 13.2951 19.4793C13.4884 19.4001 13.6958 19.3612 13.9046 19.3652C14.115 19.362 14.3238 19.4031 14.5173 19.4856C14.7109 19.5682 14.885 19.6905 15.0283 19.8446C15.3356 20.1642 15.4892 20.5331 15.4892 20.9513C15.4892 21.3696 15.3356 21.7452 15.0283 22.0781L14.5325 22.5733L14.5341 22.5677Z" fill="#5A7B90"/>
<path d="M15.0637 17.3157C14.7405 17.5986 14.3557 17.8022 13.94 17.9103L12.6509 18.3072C12.2753 18.3953 11.9723 18.3236 11.7419 18.0921C11.5114 17.8606 11.4399 17.5578 11.5273 17.1836L11.8909 15.8945C12.0248 15.4724 12.2379 15.0798 12.5188 14.7375L15.3279 11.2672C15.5049 11.0791 15.7476 10.9666 16.0055 10.9532C16.1293 10.9473 16.253 10.9661 16.3694 11.0087C16.4857 11.0513 16.5924 11.1167 16.6831 11.2011L18.6334 13.1514C18.7177 13.2421 18.7831 13.3488 18.8255 13.4652C18.868 13.5815 18.8868 13.7052 18.8808 13.829C18.8677 14.0869 18.7552 14.3298 18.5668 14.5065L15.0637 17.3157Z" fill="#445056"/>
<path d="M17.2779 8.20782C17.8505 7.6243 18.5722 7.33237 19.4428 7.33203C20.3135 7.33169 21.0406 7.62362 21.6241 8.20782C22.2076 8.79167 22.4995 9.51876 22.4998 10.3891C22.5002 11.2594 22.2083 11.981 21.6241 12.5539C21.0399 13.1272 20.3128 13.4137 19.4428 13.4133C18.5728 13.413 17.8512 13.126 17.2779 12.5524C16.7043 11.9798 16.4068 11.2527 16.3853 10.3711C16.4074 9.51278 16.705 8.79167 17.2779 8.20782Z" fill="#B8C4C5"/>
<path d="M21.8399 12.5521C21.667 12.7052 21.4429 12.7879 21.212 12.7836C20.0883 12.6515 19.1409 12.2053 18.3696 11.4449C17.5983 10.6845 17.1576 9.74265 17.0477 8.61933C17.0332 8.49876 17.0465 8.37646 17.0866 8.26184C17.1267 8.14722 17.1926 8.04332 17.2792 7.95814L17.5102 7.72665C17.6203 7.63907 17.7304 7.61654 17.841 7.66058C17.8915 7.67824 17.9365 7.70895 17.9713 7.74961C18.0061 7.79027 18.0296 7.83943 18.0392 7.89207C18.1929 8.92833 18.6226 9.79319 19.3283 10.4866C20.034 11.1801 20.8933 11.6153 21.906 11.7921C21.964 11.7977 22.0193 11.8192 22.0659 11.8541C22.1125 11.8891 22.1486 11.9362 22.1702 11.9903C22.1926 12.0405 22.1982 12.0964 22.1863 12.15C22.1744 12.2036 22.1456 12.2519 22.1042 12.2879L21.8399 12.5521Z" fill="#94A8B1"/>
<path d="M12.6506 12.9173C12.6506 13.2041 12.5571 13.4354 12.37 13.6112C12.1853 13.7812 11.9434 13.8755 11.6924 13.8755C11.4414 13.8755 11.1995 13.7812 11.0148 13.6112C10.9257 13.5223 10.855 13.4167 10.8068 13.3004C10.7586 13.1842 10.7337 13.0595 10.7337 12.9337C10.7337 12.8078 10.7586 12.6831 10.8068 12.5669C10.855 12.4506 10.9257 12.345 11.0148 12.2561C11.1992 12.0811 11.4388 11.9761 11.6924 11.959C11.8311 11.9551 11.9682 11.9893 12.0888 12.0579V10.0426L9.41178 11.5278V14.8655C9.3917 15.104 9.28601 15.3272 9.11422 15.4939C8.9326 15.664 8.69194 15.7569 8.44311 15.7528C8.19428 15.7488 7.95678 15.6481 7.78081 15.4722C7.60484 15.2962 7.50419 15.0587 7.50013 14.8099C7.49607 14.561 7.58893 14.3204 7.75907 14.1388C7.93525 13.9626 8.16657 13.8743 8.45304 13.874C8.58807 13.8746 8.72212 13.897 8.84995 13.9405V10.1726C8.8486 10.1211 8.85995 10.0701 8.88299 10.024C8.90603 9.97791 8.94006 9.9382 8.98208 9.90837L12.2209 8.12352C12.268 8.10143 12.3198 8.09137 12.3718 8.09423C12.4237 8.09709 12.4741 8.11278 12.5185 8.13991C12.5578 8.16064 12.5908 8.19154 12.614 8.22938C12.6372 8.26722 12.6499 8.31061 12.6506 8.35502V12.9173ZM21.9047 15.6604L20.5496 16.3876C20.5075 16.4174 20.4735 16.4571 20.4505 16.5032C20.4274 16.5493 20.4161 16.6004 20.4174 16.6519V20.4198C20.2897 20.3765 20.1559 20.3542 20.021 20.3537C19.7342 20.3537 19.5029 20.4418 19.327 20.618C19.1908 20.7498 19.0974 20.9197 19.0592 21.1055C19.021 21.2912 19.0397 21.4841 19.1129 21.6591C19.1861 21.834 19.3103 21.9828 19.4694 22.086C19.6285 22.1891 19.8151 22.2419 20.0046 22.2374C20.2798 22.2374 20.5055 22.1548 20.6817 21.9895C20.8597 21.8208 20.9662 21.5902 20.9793 21.3452V18.1064C20.98 18.0726 20.9896 18.0395 21.007 18.0105C21.0244 17.9815 21.0491 17.9575 21.0786 17.941L22.0701 17.3776C22.1362 17.3561 22.169 17.3008 22.169 17.2122V15.8242C22.173 15.7893 22.1674 15.754 22.1528 15.722C22.1383 15.6899 22.1154 15.6625 22.0865 15.6424C22.058 15.6265 22.0253 15.6196 21.9928 15.6228C21.9603 15.6261 21.9296 15.6391 21.9047 15.6604Z" fill="#44BCA4"/>
<path d="M15.7244 15.198C15.5784 15.3269 15.3901 15.3975 15.1953 15.3962C15.0906 15.3983 14.9865 15.3788 14.8896 15.339C14.7926 15.2992 14.705 15.2398 14.632 15.1647C14.5589 15.0973 14.5007 15.0155 14.4608 14.9245C14.421 14.8335 14.4004 14.7352 14.4004 14.6359C14.4004 14.5365 14.421 14.4382 14.4608 14.3472C14.5007 14.2562 14.5589 14.1745 14.632 14.1071L15.5241 13.2149C15.67 13.0859 15.8584 13.0153 16.0532 13.0167C16.2036 13.0142 16.3512 13.0572 16.4769 13.1399C16.6025 13.2227 16.7002 13.3414 16.7573 13.4806C16.8144 13.6198 16.8281 13.7729 16.7968 13.92C16.7655 14.0672 16.6905 14.2014 16.5817 14.3053L15.7228 15.198H15.7244Z" fill="#5A7B90"/>
</svg>
