<svg width="30" height="30" viewBox="0 0 30 30" fill="none" xmlns="http://www.w3.org/2000/svg">
<rect width="30" height="30" rx="6" fill="#BCE3CB"/>
<mask id="mask0_427_30110" style="mask-type:luminance" maskUnits="userSpaceOnUse" x="7" y="7" width="16" height="16">
<path d="M23 7H7V23H23V7Z" fill="white"/>
</mask>
<g mask="url(#mask0_427_30110)">
<path d="M13.4725 19.2959C15.067 18.4423 16.5459 17.3882 17.8729 16.1593C20.9993 13.033 23.5321 8.61729 22.9027 7.97259C22.2734 7.32788 17.8576 9.876 14.716 12.9972C13.4896 14.3275 12.4341 15.8057 11.5742 17.3976L13.4725 19.2959Z" fill="#3B88C3"/>
<path d="M7.18945 22.4428C7.18945 22.4428 10.3312 23.0671 12.5314 20.872C13.1013 20.2768 13.4358 19.495 13.4728 18.6718L12.2192 17.4131C12.2192 17.4131 10.6484 17.7303 10.019 18.3597C9.41779 19.0851 8.97977 19.9315 8.73471 20.8413C8.60506 21.2007 8.4015 21.529 8.1371 21.8049C7.87269 22.0807 7.55332 22.2981 7.1997 22.4428" fill="#C1694F"/>
<path d="M14.9462 18.2572L12.654 15.9598C12.6162 15.9187 12.5692 15.8872 12.5169 15.8678C12.4646 15.8483 12.4084 15.8416 12.353 15.8481C12.2976 15.8546 12.2444 15.8741 12.198 15.9051C12.1516 15.9361 12.1132 15.9776 12.0859 16.0263L11.5743 16.7836C11.5086 16.8841 11.4771 17.0031 11.4845 17.1229C11.4918 17.2428 11.5377 17.3571 11.6152 17.4488L13.4469 19.2805C13.5375 19.3604 13.6521 19.4078 13.7726 19.4152C13.8931 19.4226 14.0125 19.3896 14.1121 19.3215L14.8745 18.8098C14.9228 18.7827 14.9639 18.7444 14.9945 18.6982C15.025 18.652 15.044 18.5992 15.05 18.5442C15.056 18.4891 15.0489 18.4334 15.0291 18.3818C15.0092 18.3301 14.9773 18.2839 14.936 18.247" fill="#CCD6DD"/>
<path d="M11.9734 21.3372C11.4617 21.68 11.165 21.3935 11.2622 21.066C11.3594 20.7385 11.2059 20.3343 10.7096 20.4366C10.2133 20.539 9.88576 20.2831 10.0444 19.6538C10.203 19.0244 9.53269 18.8249 9.2615 19.4593C9.04091 19.9032 8.85941 20.3655 8.7191 20.8409C8.58945 21.2003 8.38589 21.5286 8.12148 21.8044C7.85708 22.0803 7.53771 22.2976 7.18408 22.4424C8.86681 22.7136 10.589 22.317 11.9836 21.3372" fill="#A0041E"/>
</g>
</svg>
