<svg width="30" height="30" viewBox="0 0 30 30" fill="none" xmlns="http://www.w3.org/2000/svg">
<rect width="30" height="30" rx="6" fill="#BCE3CB"/>
<path d="M15.3373 11.982C15.316 12.1686 15.2119 12.2713 15.0246 12.293C14.8373 12.2727 14.7342 12.1686 14.7124 11.982C14.7124 11.4218 14.8373 10.9759 15.0871 10.6442C15.3302 10.3195 15.6137 10.0268 15.9308 9.77311C16.1677 9.57942 16.3824 9.36035 16.5712 9.11988C16.7477 8.89202 16.8362 8.61192 16.8365 8.2796C16.8568 8.09319 16.9662 8 17.1647 8C17.3631 8 17.4724 8.09319 17.4924 8.2796C17.4717 8.75719 17.3469 9.15137 17.1177 9.46216C16.9008 9.76058 16.6432 10.0275 16.3524 10.2552C16.0826 10.4616 15.8411 10.7023 15.6341 10.9711C15.4356 11.2305 15.3367 11.5679 15.3373 11.9835V11.982Z" fill="#5A7B90"/>
<path d="M22.9437 17.0529C22.9953 18.0904 23.0114 19.2414 22.9921 20.5061C22.9088 21.2938 22.534 21.7708 21.8676 21.9369C21.2012 22.1031 20.6281 21.8752 20.1482 21.2533L19.4293 20.2265C19.0744 19.729 18.6892 19.1587 18.2739 18.5156C18.07 18.5768 17.8608 18.6185 17.6489 18.6399C16.9616 18.5776 16.4878 18.3754 16.2277 18.0335C16.1098 17.8704 15.9579 17.7346 15.7825 17.6352C15.6071 17.5359 15.4122 17.4754 15.2112 17.4579H15.0568C14.8557 17.4752 14.6608 17.5356 14.4853 17.635C14.3099 17.7343 14.158 17.8703 14.0402 18.0335C13.7791 18.3754 13.3052 18.5776 12.6185 18.6399C12.3256 18.6242 12.0389 18.5501 11.7753 18.422C11.3377 19.0864 10.942 19.6671 10.5883 20.1643L9.83948 21.2533C9.36025 21.8752 8.7876 22.1086 8.12153 21.9533C7.45545 21.7981 7.09094 21.316 7.02801 20.5071C6.98606 19.2421 6.99123 18.091 7.04351 17.0539C7.10245 15.985 7.34 14.9335 7.74637 13.9425L7.90273 13.538C8.09778 12.9957 8.45193 12.5243 8.91927 12.1848C9.38785 11.8425 9.93452 11.6716 10.5593 11.6719H19.4308C20.0975 11.6719 20.6703 11.8636 21.1492 12.247C21.6171 12.6152 21.956 13.1215 22.1174 13.6933C22.1573 13.7727 22.1888 13.8561 22.2113 13.942C22.6476 14.9791 22.8917 16.0161 22.9437 17.0529Z" fill="#2C3B47"/>
<path d="M12.3541 12.8996C12.7807 13.3248 12.9942 13.8639 12.9945 14.517C12.9948 15.1701 12.7813 15.7145 12.3541 16.1503C11.9268 16.5861 11.3853 16.8038 10.7295 16.8035C10.0738 16.8032 9.5271 16.5855 9.08951 16.1503C8.65223 15.7148 8.43359 15.1704 8.43359 14.517C8.43359 13.8636 8.65223 13.3245 9.08951 12.8996C9.52678 12.4744 10.0683 12.2514 10.714 12.2305C11.3801 12.251 11.9268 12.4741 12.3541 12.8996ZM21.0227 12.8996C20.5851 12.4744 20.0385 12.2618 19.3827 12.2618C18.727 12.2618 18.1803 12.4744 17.7427 12.8996C17.3051 13.3248 17.0863 13.8639 17.0863 14.517C17.0863 15.1701 17.3051 15.7145 17.7427 16.1503C18.18 16.5861 18.7266 16.8038 19.3827 16.8035C20.0388 16.8032 20.5855 16.5855 21.0227 16.1503C21.46 15.7148 21.689 15.1755 21.7096 14.5324C21.689 13.8707 21.46 13.3264 21.0227 12.8996Z" fill="#132028"/>
<path d="M19.0075 15.264C19.0624 15.2084 19.128 15.1645 19.2005 15.1351C19.2731 15.1056 19.3508 15.0913 19.4291 15.0929C19.591 15.092 19.7471 15.1533 19.8648 15.264C19.924 15.3202 19.9711 15.3878 20.0033 15.4627C20.0356 15.5375 20.0522 15.6181 20.0522 15.6996C20.0522 15.7811 20.0356 15.8617 20.0033 15.9365C19.9711 16.0114 19.924 16.079 19.8648 16.1352C19.7471 16.2459 19.591 16.3072 19.4291 16.3063C19.3508 16.308 19.273 16.2937 19.2005 16.2643C19.128 16.2349 19.0623 16.1909 19.0075 16.1352C18.8933 16.0227 18.8216 15.8744 18.8047 15.7153C18.8173 15.5459 18.889 15.3862 19.0075 15.264Z" fill="#44AADF"/>
<path d="M19.0075 12.9613C19.0624 12.9057 19.128 12.8618 19.2005 12.8323C19.2731 12.8029 19.3508 12.7885 19.4291 12.7902C19.591 12.7893 19.7471 12.8506 19.8648 12.9613C19.924 13.0175 19.9711 13.0851 20.0033 13.1599C20.0356 13.2348 20.0522 13.3154 20.0522 13.3969C20.0522 13.4783 20.0356 13.5589 20.0033 13.6338C19.9711 13.7087 19.924 13.7762 19.8648 13.8324C19.7472 13.9433 19.591 14.0044 19.4291 14.0031C19.3509 14.0049 19.273 13.9907 19.2005 13.9613C19.128 13.932 19.0623 13.8881 19.0075 13.8324C18.8933 13.7198 18.8216 13.5713 18.8047 13.4121C18.8171 13.2428 18.8889 13.0832 19.0075 12.9613Z" fill="#FBB435"/>
<path d="M17.8518 14.1128C17.9377 14.0297 18.0463 13.9737 18.164 13.9518C18.2817 13.9298 18.4033 13.9429 18.5136 13.9894C18.6239 14.0358 18.718 14.1136 18.7842 14.213C18.8504 14.3125 18.8856 14.4291 18.8856 14.5484C18.8856 14.6676 18.8504 14.7842 18.7842 14.8837C18.718 14.9831 18.6239 15.0609 18.5136 15.1073C18.4033 15.1538 18.2817 15.1669 18.164 15.1449C18.0463 15.123 17.9377 15.067 17.8518 14.9839C17.7375 14.8714 17.6659 14.7231 17.6489 14.564C17.6615 14.3946 17.7333 14.235 17.8518 14.1128Z" fill="#EF4B44"/>
<path d="M20.1638 14.1127C20.2186 14.057 20.2843 14.013 20.3568 13.9836C20.4293 13.9542 20.5071 13.9399 20.5854 13.9415C20.7473 13.9406 20.9033 14.0019 21.021 14.1127C21.0803 14.1689 21.1274 14.2364 21.1596 14.3113C21.1918 14.3862 21.2084 14.4668 21.2084 14.5482C21.2084 14.6297 21.1918 14.7103 21.1596 14.7852C21.1274 14.86 21.0803 14.9276 21.021 14.9838C20.9033 15.0945 20.7473 15.1558 20.5854 15.1549C20.5071 15.1567 20.4292 15.1425 20.3567 15.113C20.2842 15.0836 20.2185 15.0396 20.1638 14.9838C20.0496 14.8712 19.9778 14.723 19.9604 14.5639C19.9734 14.3945 20.0453 14.2349 20.1638 14.1127Z" fill="#00B69A"/>
<path d="M9.96433 14.0351L10.2141 14.3151C10.2546 14.369 10.2766 14.4344 10.2766 14.5017C10.2766 14.569 10.2546 14.6345 10.2141 14.6883L9.96433 14.9684C9.94874 14.9865 9.92966 15.0014 9.90821 15.012C9.88676 15.0227 9.86337 15.029 9.83944 15.0306H9.02717C8.90228 15.0306 8.83984 14.9582 8.83984 14.8127V14.2216C8.83984 14.077 8.90228 13.9936 9.02717 13.9729H9.83944C9.86335 13.9745 9.88669 13.9808 9.90812 13.9915C9.92956 14.0022 9.94867 14.017 9.96433 14.0351ZM11.1827 13.8171L10.9015 14.0664C10.8474 14.1068 10.7817 14.1286 10.7142 14.1286C10.6466 14.1286 10.5809 14.1068 10.5268 14.0664L10.2456 13.8171C10.2272 13.8017 10.2122 13.7828 10.2014 13.7614C10.1907 13.74 10.1845 13.7166 10.1831 13.6928V12.8838C10.2035 12.7594 10.2867 12.6973 10.4329 12.6973H10.9954C11.1406 12.6973 11.2239 12.7594 11.2452 12.8838V13.6928C11.2436 13.7166 11.2373 13.7399 11.2265 13.7612C11.2158 13.7826 11.2009 13.8016 11.1827 13.8171ZM10.2456 15.2485L10.5268 14.9997C10.5809 14.9593 10.6466 14.9375 10.7142 14.9375C10.7817 14.9375 10.8474 14.9593 10.9015 14.9997L11.1827 15.2485C11.2042 15.2608 11.2216 15.2792 11.2327 15.3013C11.2438 15.3234 11.2481 15.3483 11.2452 15.3728V16.1818C11.2239 16.2859 11.1406 16.3481 10.9954 16.3683H10.4329C10.2867 16.3481 10.2035 16.2859 10.1831 16.1818V15.3719C10.1799 15.3473 10.1841 15.3223 10.1953 15.3002C10.2064 15.278 10.2239 15.2597 10.2456 15.2475V15.2485ZM11.464 15.0306L11.2137 14.7196C11.1305 14.6161 11.1305 14.502 11.2137 14.3773L11.464 14.0972C11.4795 14.079 11.4986 14.0641 11.52 14.0534C11.5415 14.0428 11.5649 14.0365 11.5889 14.0351H12.4321C12.536 14.0351 12.5881 14.1077 12.5885 14.253V14.844C12.5885 14.9886 12.5362 15.0725 12.4321 15.0927H11.5889C11.5649 15.0914 11.5414 15.0852 11.52 15.0745C11.4985 15.0638 11.4794 15.0488 11.464 15.0306ZM13.3847 16.0883C13.4822 16.1896 13.5585 16.3091 13.6094 16.4399C13.6604 16.5707 13.6848 16.7102 13.6815 16.8504C13.6856 16.9884 13.6614 17.1258 13.6103 17.2541C13.5592 17.3825 13.4822 17.499 13.3842 17.5966C13.2862 17.6943 13.1691 17.7709 13.0403 17.8218C12.9114 17.8727 12.7735 17.8968 12.6349 17.8927C12.4941 17.8961 12.354 17.8718 12.2226 17.8211C12.0913 17.7703 11.9713 17.6943 11.8696 17.5972C11.7675 17.5018 11.6869 17.3859 11.6331 17.2572C11.5792 17.1284 11.5534 16.9898 11.5574 16.8504C11.5545 16.7089 11.5807 16.5683 11.6344 16.4372C11.6881 16.3061 11.7681 16.1874 11.8696 16.0883C11.9667 15.9883 12.0833 15.9091 12.2123 15.8556C12.3412 15.8021 12.4798 15.7755 12.6194 15.7773C12.9321 15.7773 13.1872 15.881 13.3847 16.0883ZM14.7125 15.3728C14.7125 15.2279 14.6396 15.145 14.4938 15.1241H13.7129C13.5677 15.1448 13.4941 15.2277 13.4941 15.3728C13.4941 15.5179 13.5668 15.6013 13.7129 15.6216H14.4938C14.6395 15.6013 14.7125 15.5165 14.7125 15.3719V15.3728ZM16.4929 15.6216H15.7121C15.5669 15.6013 15.4933 15.5179 15.4933 15.3728C15.4933 15.2277 15.566 15.1448 15.7121 15.1241H16.4929C16.6388 15.1447 16.7117 15.2276 16.7117 15.3728C16.7117 15.5175 16.6386 15.6013 16.4929 15.6216ZM18.1644 16.0883C18.2617 16.1897 18.338 16.3092 18.3889 16.44C18.4398 16.5707 18.4644 16.7102 18.4612 16.8504C18.4653 16.9884 18.4411 17.1258 18.39 17.2541C18.3388 17.3825 18.2619 17.499 18.1639 17.5966C18.0658 17.6943 17.9488 17.7709 17.82 17.8218C17.6911 17.8727 17.5532 17.8968 17.4146 17.8927C17.2738 17.8962 17.1336 17.8718 17.0023 17.8211C16.8709 17.7704 16.751 17.6943 16.6493 17.5972C16.5471 17.5019 16.4664 17.386 16.4126 17.2572C16.3587 17.1285 16.333 16.9898 16.3371 16.8504C16.3341 16.7089 16.3602 16.5682 16.4139 16.4371C16.4676 16.306 16.5477 16.1873 16.6493 16.0883C16.7463 15.9882 16.8629 15.909 16.9919 15.8555C17.1209 15.8021 17.2594 15.7754 17.3991 15.7773C17.5415 15.7726 17.6832 15.7978 17.8151 15.8514C17.947 15.905 18.066 15.9857 18.1644 16.0883Z" fill="#5A7B90"/>
</svg>
