<svg width="30" height="30" viewBox="0 0 30 30" fill="none" xmlns="http://www.w3.org/2000/svg">
<rect width="30" height="30" rx="6" fill="#FBC7DA"/>
<path d="M23 20.9867C22.9817 21.275 22.8497 21.5442 22.6329 21.7351C22.4162 21.9261 22.1325 22.0232 21.8442 22.005H9.15326C8.8654 22.0225 8.58238 21.9251 8.36621 21.7342C8.15004 21.5433 8.01834 21.2745 8 20.9867V9.13083C8.01834 8.84303 8.15004 8.57425 8.36621 8.38337C8.58238 8.19249 8.8654 8.09507 9.15326 8.1125H21.8442C22.1325 8.09437 22.4162 8.19148 22.6329 8.38243C22.8497 8.57339 22.9817 8.84256 23 9.13083V20.9867Z" fill="#D0D0D0"/>
<path d="M19.4616 9.23014H11.5391L12.3078 7H18.6928L19.4616 9.23014Z" fill="#94989B"/>
<path d="M12.3078 7.67676L11.5391 9.2297L14.3445 13.3845V10.5306L12.3078 7.67676Z" fill="#94989B"/>
<path d="M18.6905 7.67676L19.4619 9.2297L16.6538 13.3845V10.5306L18.6905 7.67676Z" fill="#94989B"/>
<path d="M12.3078 7L11.5391 9.23014L14.347 12.7103V9.85643L12.3078 7Z" fill="white"/>
<path d="M18.693 7L19.4619 9.23014L16.6538 12.7103V9.85643L18.693 7Z" fill="white"/>
<path d="M16.847 12.71H14.1535L13.3848 20.3092L15.5156 21.9996L17.6159 20.3092L16.847 12.71Z" fill="#42ADE2"/>
<path d="M16.9181 13.4766L16.8417 12.7129H14.1483L14.0693 13.4919C14.6447 13.8992 16.3147 13.8636 16.9181 13.4766Z" fill="#428BC1"/>
<path d="M17.0383 12.7113C16.5292 13.2204 14.4059 13.2637 13.963 12.7113C13.52 12.1588 14.3474 9.85742 14.3474 9.85742C14.6914 10.0785 15.0917 10.196 15.5006 10.196C15.9096 10.196 16.3099 10.0785 16.6539 9.85742C16.6539 9.85742 17.5806 12.1741 17.0383 12.7113Z" fill="#42ADE2"/>
</svg>
