<svg width="30" height="30" viewBox="0 0 30 30" fill="none" xmlns="http://www.w3.org/2000/svg">
<rect width="30" height="30" rx="6" fill="#32313E"/>
<path d="M22.9986 15.0015C22.9986 16.5112 22.5713 17.9901 21.7662 19.2672C20.961 20.5443 19.8108 21.5674 18.4486 22.2184C17.0864 22.8693 15.5679 23.1214 14.0684 22.9456C12.569 22.7697 11.1499 22.1731 9.97527 21.2247C8.80064 20.2763 7.91839 19.0148 7.43055 17.586C6.94271 16.1573 6.8692 14.6197 7.21848 13.1509C7.56776 11.6822 8.32559 10.3422 9.40436 9.28606C10.4831 8.22988 11.8388 7.50057 13.3146 7.18245H13.5405L13.7027 7.10425C13.833 7.08398 13.9633 7.06369 14.0965 7.04921H14.3861L14.5801 7.0029H14.693L15.0087 7.04631L15.2172 7H15.336L15.7733 7.11005H16.2916L16.4769 7.1419L18.3738 8.35238L20.4415 9.1372C21.2494 9.88522 21.8937 10.7924 22.3338 11.8017C22.7739 12.811 23.0002 13.9004 22.9986 15.0015Z" fill="#008DB3"/>
<path d="M15.3822 9.52784C15.9035 9.69581 15.8832 9.36568 16.2105 9.75083C16.4459 10.0778 16.7722 10.3285 17.1487 10.4719C17.2038 10.4719 17.3312 10.3648 17.3312 10.2663C17.3312 10.1679 17.0416 9.97671 16.891 9.92168C16.7404 9.86666 16.9547 9.57707 16.7404 9.4844C16.4812 9.32321 16.2897 9.07302 16.2018 8.7807C16.1149 8.51138 15.7384 8.73724 15.6226 8.68222C15.5067 8.62719 15.333 8.66195 15.1911 8.86756C15.1483 8.9836 15.1437 9.11032 15.1781 9.22913C15.2125 9.34794 15.284 9.45262 15.3822 9.52784Z" fill="#FFC942"/>
<path d="M18.2029 17.0636C18.2029 16.9507 17.1719 16.3889 17.0445 16.3831C16.8389 16.3831 16.5609 16.2672 16.3727 16.3831C16.2933 16.4285 16.2258 16.4919 16.1757 16.5684C16.141 16.635 15.9412 16.5105 15.863 16.551C15.6776 16.6495 15.5734 16.3309 15.6255 16.2064C15.7558 15.9168 15.2983 16.0964 15.2519 16.0153C15.3069 16.1109 15.2519 15.1465 15.0753 15.6967C14.9565 16.1051 14.4816 15.6388 14.5395 15.3434C14.6264 14.8859 15.3156 14.8193 15.4662 14.9004C15.5444 14.9409 15.8224 15.3463 15.8601 15.3348C15.8977 15.3232 15.8137 14.8569 15.7993 14.7961C15.7442 14.576 16.1699 14.5065 16.1989 14.269C16.2279 14.0316 16.3582 14.1416 16.4885 14.0373C16.6825 13.8839 16.5319 13.6001 16.7781 13.4582C16.8621 13.406 17.1748 13.3713 17.2183 13.2844C17.2617 13.1975 16.9518 12.9948 17.2183 12.9195C17.4847 12.8442 17.6903 12.963 17.754 12.6299C17.8177 12.2969 17.4644 12.2535 17.3717 12.016C17.3399 11.9436 17.3022 11.5353 17.1574 11.6105C17.0126 11.6858 16.8678 11.932 16.7201 11.6627C16.4566 11.1762 15.805 10.9677 16.112 11.7322C16.2684 12.126 15.6805 13.325 15.5937 12.2158C15.5647 11.8307 14.4121 11.7148 14.8001 11.2891C15.1882 10.8634 15.7269 10.8402 15.8746 10.1742C16.0744 9.25327 15.4373 10.0381 15.11 9.85853C14.6235 9.595 15.0376 9.73691 14.7857 10.0815C14.6901 10.2147 14.3774 10.0004 14.2383 10.0207C14.0993 10.041 13.7779 10.3103 13.6881 10.1481C13.523 9.82088 12.3821 9.62105 12.0722 9.73689C11.4293 9.97725 11.2034 9.65291 10.5605 9.52549C10.3375 9.47916 9.23996 9.4473 9.31236 9.81508C9.36205 9.9545 9.42206 10.09 9.49191 10.2205C9.55852 10.429 9.24576 10.2697 9.17336 10.319C9.30148 10.4335 9.43587 10.5408 9.5759 10.6404C9.68016 10.7476 9.17045 10.8779 9.12122 11.0575C9.01986 11.4223 9.81915 11.3181 9.67146 11.7582C9.62802 11.8915 9.17046 12.1087 9.12702 12.5546C9.12702 12.6415 9.70621 12.0015 10.0682 12.1376C10.4302 12.2737 10.3578 11.3615 10.7777 11.3615C11.5422 11.3615 11.6899 12.1058 12.0925 12.6039C12.2807 12.8355 12.4284 12.9311 12.4631 13.2352C12.4521 13.5353 12.4764 13.8356 12.5355 14.13C12.634 14.3878 12.8251 14.4051 12.9641 14.6136C13.0897 14.8611 13.2432 15.0933 13.4217 15.3058C13.7316 15.6156 14.2557 16.0877 14.7364 16.0153C14.9304 16.0642 15.1132 16.1498 15.2751 16.2672C15.3883 16.3736 15.4858 16.4955 15.5647 16.6292C15.6516 16.7422 15.9209 16.6698 16.0396 16.7248C16.1583 16.7798 15.75 17.5733 15.9064 17.7847C16.0628 17.9961 16.0628 18.2741 16.2945 18.4594C16.5261 18.6448 16.5841 18.6448 16.6072 18.9431C16.6216 19.4346 16.549 19.9248 16.3929 20.391C16.3321 20.6256 16.4537 20.8833 16.364 21.1063C16.2279 21.3592 16.1947 21.6549 16.2713 21.9317C16.4451 22.4674 17.4123 22.5543 16.8505 22.0881C16.6072 21.8882 17.1169 21.4075 16.9576 21.3612C16.6854 21.2482 17.0068 21.144 17.0445 21.0252C17.114 20.7907 18.2029 19.8176 18.2724 19.6584C18.3419 19.4991 18.2956 19.3688 18.4056 19.2674C18.5156 19.1661 18.6952 19.1834 18.8313 19.0908C19.1209 18.8996 19.0137 18.5782 19.1209 18.3146C19.3526 17.7905 19.451 17.999 19.1209 17.5907C18.9993 17.4285 18.226 17.4835 18.2029 17.0636Z" fill="#FFC942"/>
<path d="M12.4389 9.1633C12.6329 9.36891 12.8298 9.05615 12.8617 9.1633C12.8935 9.27045 12.8993 9.47606 13.1339 9.49054C13.3684 9.50502 12.9138 9.65852 13.0644 9.72223C13.2149 9.78594 13.5393 9.99152 13.6435 9.90754C13.7478 9.82356 13.9013 9.75697 13.9563 9.82068C14.0113 9.88439 14.3328 9.82067 14.2459 9.70194C14.159 9.58321 13.9071 9.33995 13.9187 9.19225C13.9303 9.04456 14.2082 8.6681 13.8955 8.69996C13.8223 8.71076 13.756 8.74919 13.7102 8.80735C13.6644 8.86552 13.6426 8.93899 13.6493 9.01271C13.6493 9.11986 13.3598 8.85052 13.3047 8.85631C13.2497 8.86211 13.047 8.52911 12.9717 8.52911C12.8964 8.52911 12.3925 8.36694 12.4331 8.52911C12.4736 8.69128 12.2419 8.95479 12.4389 9.1633Z" fill="#FFC942"/>
<path d="M16.9539 10.6976C16.8004 10.6108 16.5108 10.214 16.3747 10.3414C16.2386 10.4688 16.4065 10.7613 16.5137 10.8916C16.6208 11.022 17.0726 11.3 17.0089 11.1812C16.9452 11.0625 17.255 10.8714 16.9539 10.6976Z" fill="#FFC942"/>
<path d="M12.7352 7.95915C12.8134 7.95915 12.9379 8.22558 13.0509 8.24875C13.1638 8.27191 13.2246 8.41383 13.2681 8.44568C13.4874 8.40507 13.7012 8.33897 13.9052 8.24875C14.0384 8.19662 13.7633 7.93889 13.6677 7.75355C13.5721 7.56821 13.6474 8.06053 13.5113 7.98234C13.3752 7.90415 13.3955 7.7883 13.2217 7.7883C13.048 7.7883 13.1725 7.44947 12.964 7.52186C12.7555 7.59426 12.657 7.96784 12.7352 7.95915Z" fill="#FFC942"/>
<path d="M14.4666 8.60371C14.3247 8.63267 14.3508 8.72536 14.2726 8.80645C14.2529 8.82511 14.2373 8.84755 14.2266 8.87245C14.216 8.89734 14.2104 8.92416 14.2104 8.95124C14.2104 8.97833 14.216 9.00511 14.2266 9.03C14.2373 9.0549 14.2529 9.07737 14.2726 9.09604C14.345 9.19161 14.4579 9.35377 14.5448 9.19739C14.6317 9.04101 14.5448 8.90781 14.5448 8.80935C14.5448 8.71088 14.5361 8.58344 14.4666 8.60371Z" fill="#FFC942"/>
<path d="M14.7538 9.10709C14.7885 9.19397 14.8551 8.95648 14.9941 8.83485C15.1332 8.71322 14.9247 8.40337 14.7972 8.55975C14.7221 8.73223 14.7068 8.92491 14.7538 9.10709Z" fill="#FFC942"/>
<path d="M14.7271 9.21504C14.6518 9.31929 14.5939 9.60017 14.7271 9.62334C14.7564 9.62671 14.786 9.62192 14.8127 9.60945C14.8394 9.59698 14.8622 9.57732 14.8784 9.55271C14.8946 9.5281 14.9036 9.49948 14.9045 9.47002C14.9054 9.44057 14.8982 9.41145 14.8835 9.38589C14.8256 9.27874 14.759 9.16291 14.7271 9.21504Z" fill="#FFC942"/>
<path d="M15.2694 7.3998C15.142 7.45772 15.4576 7.56487 15.2433 7.62279C15.029 7.68071 15.0203 7.85734 14.8321 7.70675C14.6439 7.55616 14.444 7.75888 14.583 7.85155C14.722 7.94422 14.9624 8.16721 14.9537 8.28884C14.945 8.41046 15.1767 8.4684 15.3939 8.45392C15.6111 8.43944 15.866 8.50604 15.8746 8.41048C15.8833 8.31491 15.9065 8.28014 15.8746 8.21064C15.8428 8.14114 15.7472 8.00795 15.5242 8.09483C15.3012 8.18171 15.1565 8.13824 15.1246 8.03109C15.0927 7.92394 15.559 7.71544 15.7675 7.85734C15.976 7.99924 16.17 7.77916 16.0194 7.6778C15.8688 7.57644 15.9673 7.47218 16.0715 7.4577C16.1758 7.44322 16.2164 7.255 16.2714 7.10731C15.9549 7.0577 15.6358 7.02577 15.3157 7.01172C15.3215 7.21443 15.3997 7.34188 15.2694 7.3998Z" fill="#FFC942"/>
<path d="M13.3602 7.21942C13.505 7.28024 13.7396 7.21942 13.6962 7.10938C13.5658 7.12965 13.4355 7.15571 13.3081 7.18177C13.3226 7.19793 13.3403 7.21077 13.3602 7.21942Z" fill="#FFC942"/>
<path d="M13.4413 7.3322C13.2385 7.22794 13.2501 7.48278 13.3428 7.58414C13.4355 7.6855 13.7106 7.46831 13.4413 7.3322Z" fill="#FFC942"/>
<path d="M14.6777 7.01161C14.7428 7.01927 14.8045 7.04507 14.8557 7.08603C14.9069 7.12698 14.9456 7.18146 14.9673 7.2433C14.9963 7.33308 15.2135 7.13617 15.2164 7.00875H15.0079C14.8891 7.00585 14.7849 7.00582 14.6777 7.01161Z" fill="#FFC942"/>
<path d="M14.2549 7.30909C14.1652 7.43362 14.2549 7.59869 14.3505 7.45969C14.4461 7.32068 14.3708 7.01663 14.4576 7.15274C14.5445 7.28885 14.7009 7.50601 14.8109 7.51759C14.921 7.52918 14.8109 7.39018 14.8109 7.27724C14.8109 7.1643 14.5416 7.05425 14.5648 7.0166C14.4055 7.0166 14.2462 7.03687 14.0898 7.05425C14.2028 7.13534 14.31 7.21932 14.2549 7.30909Z" fill="#FFC942"/>
<path d="M14.7274 8.39055C14.8548 8.43979 14.7274 8.13281 14.7274 8.13281C14.6 8.211 14.6 8.34132 14.7274 8.39055Z" fill="#FFC942"/>
<path d="M14.2734 8.18732C14.2937 8.2742 14.4298 8.30316 14.5022 8.18732C14.5746 8.07148 14.5022 7.65447 14.4009 7.78768C14.2995 7.92089 14.1807 7.85718 13.9722 7.78768C13.7637 7.71818 14.2503 8.10334 14.2734 8.18732Z" fill="#FFC942"/>
<path d="M15.6775 15.5337C15.8541 15.5134 15.9671 15.7277 16.164 15.7161C16.3609 15.7045 16.6621 16.0057 16.8358 15.8291C17.0096 15.6524 16.2219 15.5655 15.9671 15.4381C15.7122 15.3107 15.5008 15.5481 15.6775 15.5337Z" fill="#FFC942"/>
<path d="M16.5553 7.42527C16.8044 7.54401 16.7609 7.54112 16.6104 7.65406C16.4598 7.76701 16.5119 8.02184 16.8478 8.00446C17.1838 7.98708 17.3865 7.65406 17.5371 8.1232C17.6877 8.59234 17.5805 9.09913 17.7716 9.24103C17.9628 9.38293 17.8064 9.48427 17.7716 9.61748C17.7369 9.75069 17.8267 9.84916 17.9773 9.80572C18.1278 9.76228 18.0844 10.0432 17.9773 10.1619C17.8701 10.2807 17.7427 10.5066 18.0757 10.9149C18.2256 11.0906 18.3872 11.256 18.5593 11.4101C18.6665 11.5491 18.7533 11.358 18.7852 11.1958C18.8171 11.0336 18.7099 10.4631 19.0748 10.4631C19.1941 10.4626 19.31 10.4234 19.4051 10.3513C19.5001 10.2792 19.5692 10.1782 19.6019 10.0635C19.6453 9.9679 19.9465 9.97658 20.1087 9.83757C20.2204 9.75853 20.3081 9.65023 20.3623 9.52454C20.4165 9.39886 20.4349 9.26068 20.4156 9.12519C19.3098 8.09797 17.9349 7.40601 16.4511 7.12988C16.4337 7.25151 16.4337 7.37604 16.5553 7.42527Z" fill="#FFC942"/>
</svg>
