<svg width="25" height="24" viewBox="0 0 25 24" fill="none" xmlns="http://www.w3.org/2000/svg">
<path d="M24.2334 10.8371L17.7595 8.43343L15.3474 0.510643C15.2896 0.326313 15.161 0.172476 14.9898 0.0829577C14.8186 -0.00656078 14.619 -0.0244389 14.4347 0.0332589C14.3222 0.0677717 14.2198 0.129332 14.1366 0.212553C14.0533 0.295774 13.9917 0.398125 13.9572 0.510643L11.5369 8.43343L5.06303 10.8371C4.97369 10.8697 4.89167 10.9197 4.82176 10.9842C4.75185 11.0487 4.69544 11.1265 4.65573 11.2129C4.61602 11.2993 4.59371 11.3927 4.5903 11.4878C4.5869 11.5829 4.60247 11.6777 4.6359 11.7667C4.67038 11.8654 4.72654 11.9551 4.8005 12.0291C4.87445 12.103 4.96429 12.1594 5.06303 12.1938L11.5369 14.5891L13.9488 22.7548C14.0051 22.939 14.1313 23.0939 14.3003 23.1862C14.4694 23.2786 14.668 23.3011 14.8534 23.2489C14.9699 23.2132 15.0758 23.1495 15.162 23.0633C15.2481 22.9772 15.3117 22.8712 15.3474 22.7548L17.7679 14.5891L24.2334 12.1938C24.3238 12.1613 24.4068 12.1109 24.4774 12.0458C24.548 11.9807 24.6048 11.9022 24.6446 11.8148C24.6844 11.7274 24.7063 11.6329 24.709 11.5369C24.7118 11.4409 24.6953 11.3454 24.6606 11.2558C24.6256 11.1583 24.5689 11.07 24.495 10.9975C24.421 10.925 24.3316 10.8701 24.2334 10.8371Z" fill="#FFC14C"/>
<path d="M9.66855 18.8348L7.99354 18.2066L7.34026 15.8114C7.31505 15.7189 7.27178 15.6324 7.21308 15.5566C7.15438 15.4809 7.08142 15.4175 6.99818 15.3701C6.91494 15.3226 6.82315 15.292 6.72808 15.2801C6.63301 15.2682 6.53646 15.2751 6.44407 15.3005C6.32185 15.3339 6.2104 15.3986 6.12081 15.4882C6.03121 15.5777 5.96649 15.6891 5.9331 15.8114L5.28003 18.2066L3.60502 18.8348C3.51493 18.8666 3.43189 18.916 3.36109 18.9801C3.29028 19.0443 3.23293 19.1219 3.1924 19.2084C3.15187 19.2949 3.12909 19.3886 3.12513 19.4841C3.12117 19.5795 3.13628 19.6748 3.1695 19.7644C3.20687 19.8638 3.26492 19.9541 3.34003 20.0292C3.41514 20.1043 3.50559 20.1625 3.60502 20.1999L5.28003 20.8197L5.94149 23.4494C5.96399 23.5421 6.00477 23.6295 6.06131 23.7063C6.11785 23.7832 6.18907 23.848 6.27089 23.8971C6.3527 23.9462 6.4435 23.9786 6.53792 23.9923C6.63234 24.006 6.7285 24.0008 6.82091 23.977C6.94865 23.9457 7.06547 23.8799 7.15849 23.7869C7.2515 23.6939 7.31726 23.5772 7.34864 23.4494L8.0101 20.8197L9.68511 20.1999C9.77476 20.1664 9.85701 20.1155 9.927 20.0502C9.99698 19.9849 10.0534 19.9065 10.093 19.8194C10.1327 19.7323 10.155 19.6382 10.1583 19.5426C10.1616 19.4469 10.1458 19.3515 10.1122 19.2619C10.0789 19.1625 10.023 19.0723 9.94887 18.9982C9.87477 18.9241 9.78446 18.8681 9.68511 18.8348" fill="#F78DE7"/>
<path d="M6.51088 3.07387L4.79395 2.43735L4.15744 0.720479C4.12391 0.630829 4.07306 0.548657 4.00777 0.478669C3.94248 0.408681 3.86403 0.352241 3.77692 0.312576C3.68982 0.272911 3.59573 0.250804 3.50007 0.247504C3.40442 0.244204 3.30897 0.259775 3.21934 0.293343C3.1206 0.32782 3.03096 0.38414 2.957 0.458094C2.88305 0.532048 2.82668 0.621738 2.7922 0.720479L2.15569 2.43735L0.480678 3.07387C0.39028 3.10657 0.307427 3.15683 0.236542 3.22176C0.165657 3.2867 0.108132 3.36502 0.0676505 3.45221C0.0271688 3.5394 0.00444367 3.63374 0.000584634 3.72979C-0.0032744 3.82584 0.0120069 3.92171 0.0453634 4.01187C0.0827765 4.11031 0.140912 4.19947 0.216095 4.2732C0.291278 4.34694 0.381533 4.4035 0.480678 4.43899L2.15569 5.0755L2.7922 6.75051C2.82401 6.8406 2.87344 6.92346 2.93758 6.99427C3.00172 7.06507 3.07945 7.12241 3.16597 7.16294C3.25249 7.20347 3.34614 7.22639 3.44159 7.23035C3.53705 7.23431 3.63234 7.21924 3.72192 7.18602C3.82219 7.15014 3.91324 7.09246 3.98855 7.01715C4.06385 6.94185 4.12156 6.85079 4.15744 6.75051L4.79395 5.0755L6.51088 4.43899C6.69145 4.37287 6.83844 4.23805 6.92002 4.06391C7.0016 3.88976 7.01117 3.69042 6.9464 3.50936C6.90903 3.40993 6.85078 3.31964 6.77567 3.24453C6.70056 3.16942 6.61031 3.11124 6.51088 3.07387Z" fill="#5DADEC"/>
</svg>
