<svg width="30" height="30" viewBox="0 0 30 30" fill="none" xmlns="http://www.w3.org/2000/svg">
<rect width="30" height="30" rx="6" fill="#211E34"/>
<mask id="mask0_673_29893" style="mask-type:luminance" maskUnits="userSpaceOnUse" x="7" y="7" width="16" height="16">
<path d="M23 7H7V23H23V7Z" fill="white"/>
</mask>
<g mask="url(#mask0_673_29893)">
<path d="M19.8121 14.838C19.348 15.3947 19.1203 16.111 19.1777 16.8335L19.5717 19.6989C19.6587 20.3334 19.2596 20.625 18.6865 20.3487L16.0872 19.1053C15.4165 18.8315 14.6651 18.8315 13.9944 19.1053L11.4105 20.3692C10.8323 20.6506 10.4332 20.3692 10.5151 19.7245L10.8886 16.854C10.9435 16.1323 10.7098 15.4183 10.2388 14.8687L8.23806 12.7811C7.79802 12.3206 7.94648 11.8447 8.57584 11.7577L11.4054 11.2461C11.7545 11.1611 12.0834 11.0079 12.3732 10.7954C12.6629 10.5829 12.9078 10.3153 13.0938 10.0078L14.4498 7.44944C14.7466 6.8866 15.2429 6.88148 15.5499 7.44944L16.9212 10.0078C17.304 10.6236 17.9145 11.0632 18.6199 11.2307L21.4495 11.7424C22.0788 11.8549 22.2323 12.3257 21.7974 12.7913L19.8173 14.8892L19.8121 14.838Z" fill="#FFAC33"/>
<path d="M7.92587 16.1522C8.65756 15.9117 10.3307 15.7889 10.4535 16.1522C10.5763 16.5155 9.15385 17.4212 8.40681 17.6565C7.65977 17.8919 7.15835 17.6872 7.0202 17.2677C6.88205 16.8481 7.17882 16.3722 7.91562 16.1317M21.567 17.6668C20.8302 17.4263 19.4078 16.5411 19.5203 16.1317C19.6329 15.7224 21.3163 15.8759 22.048 16.1317C22.7796 16.3876 23.0713 16.843 22.9434 17.2677C22.8155 17.6923 22.2936 17.897 21.5568 17.6565M14.3934 21.7499C14.3934 20.9722 14.7925 19.3399 15.1916 19.3399C15.5907 19.3399 15.9898 20.9722 15.9898 21.7448C15.9898 22.5174 15.6316 22.9523 15.1916 22.9523C14.7516 22.9523 14.3934 22.5225 14.3934 21.7499ZM19.9502 8.86599C19.4948 9.49535 18.2156 10.5801 17.9035 10.3447C17.5914 10.1094 18.2105 8.54876 18.6659 7.92452C19.1213 7.30028 19.6585 7.15701 20.0166 7.41284C20.3748 7.66868 20.4107 8.23152 19.9604 8.86088M11.3592 7.91428C11.8146 8.54364 12.449 10.1042 12.1216 10.3396C11.7941 10.575 10.52 9.49024 10.0749 8.86088C9.62971 8.23152 9.66036 7.6738 10.0185 7.41284C10.3767 7.15189 10.914 7.29004 11.3694 7.92452" fill="#FFD983"/>
</g>
</svg>
