<svg width="30" height="30" viewBox="0 0 30 30" fill="none" xmlns="http://www.w3.org/2000/svg">
<rect width="30" height="30" rx="6" fill="#FDE3F9"/>
<path d="M21.3681 9H9.63192C9.19911 9 8.78401 9.17192 8.47797 9.47797C8.17192 9.78401 8 10.1991 8 10.6319V18.0898C8 18.5226 8.17192 18.9377 8.47797 19.2437C8.78401 19.5497 9.19911 19.7217 9.63192 19.7217H11.3617V22.5204L13.9646 19.7217H21.3681C21.8009 19.7217 22.216 19.5497 22.522 19.2437C22.8281 18.9377 23 18.5226 23 18.0898V10.6319C23 10.1991 22.8281 9.78401 22.522 9.47797C22.216 9.17192 21.8009 9 21.3681 9Z" fill="#F571E1"/>
<path d="M11.5013 13.2949C11.2919 13.2944 11.0871 13.356 10.9128 13.4719C10.7384 13.5879 10.6024 13.7529 10.5219 13.9462C10.4414 14.1395 10.4201 14.3523 10.4606 14.5577C10.5011 14.7631 10.6016 14.9519 10.7495 15.1001C10.8973 15.2484 11.0859 15.3494 11.2912 15.3905C11.4965 15.4315 11.7094 15.4107 11.9028 15.3307C12.0963 15.2507 12.2618 15.1151 12.3781 14.9411C12.4945 14.767 12.5566 14.5623 12.5566 14.353C12.5566 14.0728 12.4456 13.8041 12.2477 13.6058C12.0499 13.4074 11.7814 13.2956 11.5013 13.2949Z" fill="white"/>
<path d="M15.4994 13.2949C15.29 13.2944 15.0852 13.356 14.9108 13.4719C14.7365 13.5879 14.6005 13.7529 14.52 13.9462C14.4395 14.1395 14.4181 14.3523 14.4586 14.5577C14.4991 14.7631 14.5997 14.9519 14.7475 15.1001C14.8954 15.2484 15.0839 15.3494 15.2892 15.3905C15.4946 15.4315 15.7075 15.4107 15.901 15.3307C16.0944 15.2507 16.2598 15.1151 16.3762 14.9411C16.4926 14.767 16.5547 14.5623 16.5547 14.353C16.5547 14.0728 16.4436 13.8041 16.2458 13.6058C16.048 13.4074 15.7795 13.2956 15.4994 13.2949Z" fill="white"/>
<path d="M19.4947 13.2949C19.2855 13.2949 19.0809 13.357 18.9069 13.4732C18.7329 13.5895 18.5973 13.7547 18.5172 13.9481C18.4371 14.1414 18.4162 14.3541 18.457 14.5594C18.4978 14.7646 18.5986 14.9531 18.7466 15.1011C18.8945 15.249 19.0831 15.3498 19.2883 15.3907C19.4935 15.4315 19.7063 15.4105 19.8996 15.3304C20.0929 15.2504 20.2582 15.1147 20.3744 14.9407C20.4907 14.7668 20.5527 14.5622 20.5527 14.353C20.5527 14.0723 20.4413 13.8032 20.2428 13.6048C20.0444 13.4064 19.7753 13.2949 19.4947 13.2949Z" fill="white"/>
</svg>
