<svg width="25" height="24" viewBox="0 0 25 24" fill="none" xmlns="http://www.w3.org/2000/svg">
<mask id="mask0_673_29617" style="mask-type:luminance" maskUnits="userSpaceOnUse" x="0" y="0" width="25" height="24">
<path d="M24.2726 0H0.280273V24H24.2726V0Z" fill="white"/>
</mask>
<g mask="url(#mask0_673_29617)">
<path d="M15.5536 9.60168C14.8556 10.0684 14.2098 10.6088 13.6272 11.2134C13.5427 8.38901 12.8596 4.728 9.1142 2.93203C8.34669 -1.10507 -0.272414 0.944177 0.495094 1.34328C2.03011 2.11079 2.85898 4.10631 3.85674 5.18083C5.62201 7.0382 7.58684 7.15332 8.56157 5.69506C10.8641 7.23007 11.0329 10.0545 10.9562 13.0938C10.9562 13.4392 10.9562 13.7462 10.9562 14.0379V23.3631C10.9562 24.1306 13.6272 24.1306 13.6272 23.3631V15.688C14.3851 14.3407 15.3841 13.144 16.5744 12.1575C17.6335 13.0938 19.3374 12.7945 20.8878 11.1674C21.8778 10.1159 22.4228 8.09736 23.9578 7.32985C24.7714 6.92307 15.4231 4.66659 15.5689 9.594" fill="#77B255"/>
</g>
</svg>
