<svg width="25" height="24" viewBox="0 0 25 24" fill="none" xmlns="http://www.w3.org/2000/svg">
<path d="M0.272949 12C0.272949 15.1826 1.5372 18.2348 3.78764 20.4853C6.03807 22.7357 9.09026 24 12.2729 24C15.4555 24 18.5078 22.7357 20.7583 20.4853C23.0087 18.2348 24.2729 15.1826 24.2729 12C24.2729 8.8174 23.0087 5.76515 20.7583 3.51471C18.5078 1.26427 15.4555 0 12.2729 0C9.09026 0 6.03807 1.26427 3.78764 3.51471C1.5372 5.76515 0.272949 8.8174 0.272949 12Z" fill="#99AAB5"/>
<path d="M21.6108 12.0009C21.6108 13.2266 21.3691 14.4402 20.8998 15.5725C20.4306 16.7047 19.7429 17.7334 18.8759 18.5997C18.0088 19.466 16.9797 20.1529 15.847 20.6213C14.7144 21.0896 13.5004 21.3302 12.2748 21.3291C9.80008 21.3291 7.42675 20.3466 5.67615 18.5974C3.92555 16.8483 2.941 14.4756 2.93896 12.0009C2.93896 9.5249 3.92252 7.15028 5.67334 5.39946C7.42416 3.64864 9.79876 2.66504 12.2748 2.66504C13.5011 2.66403 14.7156 2.90482 15.8487 3.37364C16.9818 3.84245 18.0114 4.5301 18.8785 5.39721C19.7456 6.26433 20.4333 7.2939 20.9021 8.42704C21.3709 9.56018 21.6118 10.7746 21.6108 12.0009Z" fill="#E1E8ED"/>
<path d="M12.2743 20.6679C12.0971 20.6679 11.9272 20.5975 11.8019 20.4723C11.6767 20.347 11.6064 20.1771 11.6064 20V12C11.6064 11.8228 11.6767 11.6529 11.8019 11.5276C11.9272 11.4024 12.0971 11.332 12.2743 11.332C12.4514 11.332 12.6214 11.4024 12.7466 11.5276C12.8719 11.6529 12.9423 11.8228 12.9423 12V20.0307C12.9423 20.2078 12.8719 20.3777 12.7466 20.503C12.6214 20.6282 12.4514 20.6986 12.2743 20.6986" fill="#67757F"/>
<path d="M12.2743 12.6675C12.1866 12.6675 12.0999 12.6502 12.0189 12.6166C11.9378 12.583 11.864 12.5338 11.802 12.4718C11.74 12.4098 11.6909 12.3362 11.6573 12.2551C11.6237 12.1741 11.6065 12.0872 11.6065 11.9995C11.6052 11.8931 11.6296 11.788 11.6777 11.6931C11.7258 11.5981 11.7962 11.5163 11.8828 11.4544L16.5508 8.12234C16.6957 8.01966 16.8754 7.97821 17.0507 8.00695C17.226 8.03569 17.3828 8.13231 17.4874 8.2759C17.5877 8.42029 17.6278 8.59809 17.5991 8.77154C17.5705 8.945 17.4753 9.10045 17.3339 9.20488L12.6582 12.5446C12.5457 12.6237 12.4118 12.6665 12.2743 12.6675Z" fill="#67757F"/>
</svg>
