<svg width="30" height="30" viewBox="0 0 30 30" fill="none" xmlns="http://www.w3.org/2000/svg">
<rect width="30" height="30" rx="6" fill="#FFC455" fill-opacity="0.44"/>
<path d="M21.6599 13.4452C20.9787 14.0372 20.2552 14.5787 19.495 15.0652C19.1241 12.9091 18.0982 10.2487 16.0667 7C15.5264 9.41614 14.5533 11.7146 13.1947 13.7842C12.6417 12.9469 12.1793 12.0532 11.8153 11.1181C4.86002 18.0733 10.6242 23 14.2467 23C18.8951 23.0087 22.9843 20.7685 21.6599 13.4452Z" fill="#FF9D33"/>
<path d="M18.9281 19.6464C19.397 18.5455 19.6508 17.3651 19.6758 16.1688C19.1972 16.565 18.6906 16.9262 18.1602 17.2497C17.8994 15.8007 17.1835 14.0359 15.7606 11.8682C15.3785 13.4893 14.6964 15.0246 13.7494 16.3948C13.3639 15.8386 13.0403 15.242 12.7843 14.6155C11.6251 16.4354 11.176 17.8786 11.1499 19.006C10.798 18.8809 10.4535 18.7357 10.1182 18.5713C11.2107 21.8344 13.4741 22.5415 14.4855 22.5415C16.2968 22.5415 18.137 22.0055 19.9627 19.4204C19.9627 19.432 19.5628 19.5305 18.9281 19.6464Z" fill="#FFCE31"/>
<path d="M12.314 18.1567C12.314 18.1567 13.0588 19.1797 13.6268 18.9305C14.3203 17.8955 15.2128 17.0089 16.2523 16.3223C16.2523 16.3223 15.9336 18.8842 16.2987 19.3392C16.7827 19.939 18.0955 18.6697 18.0955 18.6697C18.0955 20.1854 16.4378 22.0923 14.9569 22.0923C13.476 22.0923 11.4011 20.4433 12.314 18.1567Z" fill="#FFDF85"/>
<path d="M19.7419 11.2907C20.0969 10.7681 20.4108 10.2186 20.6808 9.64746C21.6169 11.1892 21.0663 12.1253 20.6548 12.4325C20.1013 12.844 19.0985 12.2296 19.7419 11.2907Z" fill="#FF9D33"/>
<path d="M9.54994 11.0276C9.20245 10.3734 8.99515 9.6539 8.94133 8.91504C7.60534 10.9437 8.12698 12.0275 8.57037 12.3579C9.17316 12.8042 10.1817 12.1144 9.54994 11.0276Z" fill="#FF9D33"/>
<path d="M12.6507 8.93804C12.6783 8.49901 12.6111 8.05917 12.4536 7.64844C13.72 8.46568 13.7056 9.17859 13.5404 9.4568C13.323 9.82775 12.5782 9.67704 12.6507 8.93804Z" fill="#FF9D33"/>
</svg>
