<svg width="22" height="24" viewBox="0 0 22 24" fill="none" xmlns="http://www.w3.org/2000/svg">
<path d="M19.4997 23.9985H3.82542C3.59656 24.0044 3.36884 23.965 3.15617 23.8825C2.9435 23.8001 2.75033 23.6763 2.58844 23.5188C2.42655 23.3614 2.29934 23.1735 2.21456 22.9666C2.12978 22.7598 2.08921 22.5383 2.09533 22.3157V9.85938H21.2796V22.3157C21.259 22.7683 21.0653 23.1971 20.7363 23.5178C20.5746 23.6754 20.3815 23.7993 20.1689 23.882C19.9562 23.9646 19.7286 24.0042 19.4997 23.9985Z" fill="#00B69A"/>
<path d="M20.4377 4.32849L2.09399 9.76293L0.709473 5.4352L19.103 0L20.4377 4.32849ZM21.2805 9.76293H2.09399V14.2345H21.2782L21.2805 9.76293Z" fill="#B8C4C5"/>
<path d="M3.87388 9.23356L1.15462 6.8286L0.709473 5.43422L3.9237 4.51978L7.92865 8.03071L3.87388 9.23356ZM8.17536 9.76195H3.97272L2.09399 12.7922V14.235H5.40629L8.17536 9.76195ZM6.69198 3.65081L10.7467 2.4964L14.7517 6.00732L10.6977 7.20943L6.69198 3.65081ZM11.0931 9.76195H15.2957L12.5266 14.2335H8.324L11.0931 9.76195ZM17.5705 0.480469L19.8945 2.50013L20.4377 4.32751L17.5208 5.1935L13.5173 1.63413L17.5705 0.480469ZM18.2134 9.76195H21.2782V11.6378L19.696 14.235H15.4443L18.2134 9.76195Z" fill="#445056"/>
</svg>
